<svg width="30" height="30" viewBox="0 0 30 30" fill="none" xmlns="http://www.w3.org/2000/svg">
<path d="M8.86364 0C3.975 0 0 3.975 0 8.86364V21.1364C0 26.025 3.975 30 8.86364 30H21.1364C26.025 30 30 26.025 30 21.1364V8.86364C30 3.975 26.025 0 21.1364 0H8.86364ZM23.1818 5.45455C23.9318 5.45455 24.5455 6.06818 24.5455 6.81818C24.5455 7.56818 23.9318 8.18182 23.1818 8.18182C22.4318 8.18182 21.8182 7.56818 21.8182 6.81818C21.8182 6.06818 22.4318 5.45455 23.1818 5.45455ZM15 7.5C19.1386 7.5 22.5 10.8614 22.5 15C22.5 19.1386 19.1386 22.5 15 22.5C10.8614 22.5 7.5 19.1386 7.5 15C7.5 10.8614 10.8614 7.5 15 7.5ZM15 8.86364C11.6182 8.86364 8.86364 11.6182 8.86364 15C8.86364 18.3818 11.6182 21.1364 15 21.1364C18.3818 21.1364 21.1364 18.3818 21.1364 15C21.1364 11.6182 18.3818 8.86364 15 8.86364Z" fill="#592500"/>
</svg>
