<svg width="30" height="30" viewBox="0 0 30 30" fill="none" xmlns="http://www.w3.org/2000/svg">
<path d="M15 0C6.72921 0 9.67976e-05 6.72913 9.67976e-05 15C9.67976e-05 17.5826 0.667268 20.1222 1.93248 22.363L0.0242271 29.1717C-0.0383814 29.3954 0.0222707 29.6354 0.184009 29.8017C0.308574 29.9302 0.478139 30 0.652269 30C0.704442 30 0.757268 29.9935 0.80879 29.9811L7.91485 28.2209C10.0846 29.3857 12.5283 30 15 30C23.2709 30 30 23.2709 30 15C30 6.72913 23.2709 0 15 0ZM22.5457 20.293C22.2248 21.1813 20.6857 21.992 19.9461 22.1009C19.2822 22.198 18.4422 22.2398 17.52 21.9502C16.9611 21.7741 16.2437 21.5407 15.3248 21.1487C11.462 19.5013 8.93942 15.6607 8.74637 15.407C8.55398 15.1533 7.17399 13.3454 7.17399 11.4743C7.17399 9.60326 8.16855 8.68304 8.52203 8.30217C8.8755 7.9213 9.29224 7.82609 9.5492 7.82609C9.80615 7.82609 10.0625 7.82935 10.2875 7.83978C10.5242 7.85152 10.8418 7.75044 11.1542 8.49261C11.4751 9.25435 12.2453 11.1254 12.3405 11.3165C12.437 11.507 12.5009 11.7293 12.3731 11.983C12.2453 12.2367 12.1814 12.3952 11.9883 12.6176C11.7953 12.84 11.584 13.1133 11.4105 13.2841C11.2175 13.4739 11.0172 13.6793 11.2416 14.0602C11.4659 14.4411 12.2388 15.6861 13.384 16.6943C14.8546 17.9896 16.0957 18.3913 16.4805 18.5817C16.8653 18.7722 17.0903 18.7402 17.3146 18.4865C17.539 18.2322 18.2772 17.3759 18.5335 16.9957C18.7898 16.6154 19.0468 16.678 19.4003 16.8052C19.7537 16.9317 21.647 17.8513 22.0318 18.0417C22.4165 18.2322 22.6735 18.3274 22.77 18.4859C22.8665 18.6437 22.8665 19.4054 22.5457 20.293Z" fill="#00FF1A"/>
</svg>
